<?xml version="1.0" encoding="utf-8"?>
<!-- Generator: Adobe Illustrator 18.1.0, SVG Export Plug-In . SVG Version: 6.00 Build 0)  -->
<!DOCTYPE svg PUBLIC "-//W3C//DTD SVG 1.1//EN" "http://www.w3.org/Graphics/SVG/1.1/DTD/svg11.dtd">
<svg version="1.1" id="Layer_1" xmlns="http://www.w3.org/2000/svg" xmlns:xlink="http://www.w3.org/1999/xlink" x="0px" y="0px"
	 width="1114.1px" height="232px" viewBox="2184.5 327.6 1114.1 232" enable-background="new 2184.5 327.6 1114.1 232"
	 xml:space="preserve">
<g>
	<polygon fill="#231F20" points="2316.4,359 2288.1,383.7 2288.2,383.7 2261.2,407.9 2286.9,429.3 2313.6,405.9 2324.4,415.3 
		2257.8,473.3 2283.2,495.5 2349.8,437.5 2359.3,445.8 2255.1,536.6 2281.5,559.7 2377.4,476 2377.4,412.3 	"/>
	<polygon fill="#231F20" points="2237.9,472.2 2276,438.8 2250.5,416.6 2212.5,450 2202.7,441.5 2306.9,350.7 2280.5,327.6 
		2184.5,411.3 2184.5,475 2245.7,528.3 2273.9,503.6 	"/>
</g>
<g>
	<path fill="#231F20" d="M3178,512c1.2,0,2.1,0.4,3,1.2c0.8,0.8,1.2,1.8,1.2,2.9c0,1.2-0.4,2.1-1.2,3c-0.8,0.8-1.8,1.2-3,1.2
		c-1.2,0-2.1-0.4-3-1.2s-1.2-1.8-1.2-3c0-1.2,0.4-2.1,1.2-2.9C3175.8,512.4,3176.8,512,3178,512z"/>
	<path fill="#231F20" d="M3216,496.5l-6,3.3c-1.1-1.2-2.3-2-3.4-2.5c-1.1-0.5-2.4-0.7-3.9-0.7c-2.7,0-4.9,0.8-6.6,2.4
		c-1.7,1.6-2.5,3.7-2.5,6.2c0,2.5,0.8,4.5,2.4,6c1.6,1.6,3.7,2.3,6.4,2.3c3.3,0,5.8-1.1,7.6-3.3l5.7,3.9c-3.1,4-7.5,6.1-13.1,6.1
		c-5.1,0-9.1-1.5-12-4.5c-2.9-3-4.3-6.5-4.3-10.6c0-2.8,0.7-5.4,2.1-7.7c1.4-2.4,3.4-4.2,5.9-5.6c2.5-1.3,5.3-2,8.4-2
		c2.9,0,5.5,0.6,7.7,1.7C3212.7,492.8,3214.6,494.4,3216,496.5z"/>
	<path fill="#231F20" d="M3234.6,489.9c2.7,0,5.3,0.7,7.7,2.1c2.4,1.4,4.3,3.2,5.6,5.6c1.3,2.3,2,4.9,2,7.6c0,2.7-0.7,5.3-2,7.7
		c-1.4,2.4-3.2,4.2-5.6,5.6c-2.3,1.3-4.9,2-7.7,2c-4.2,0-7.7-1.5-10.6-4.4c-2.9-3-4.4-6.5-4.4-10.8c0-4.5,1.7-8.3,5-11.3
		C3227.5,491.2,3230.8,489.9,3234.6,489.9z M3234.7,496.7c-2.3,0-4.1,0.8-5.6,2.4c-1.5,1.6-2.3,3.6-2.3,6c0,2.5,0.7,4.6,2.2,6.1
		c1.5,1.6,3.4,2.3,5.6,2.3c2.3,0,4.2-0.8,5.7-2.4c1.5-1.6,2.3-3.6,2.3-6.1c0-2.5-0.7-4.5-2.2-6.1
		C3238.9,497.5,3237,496.7,3234.7,496.7z"/>
	<path fill="#231F20" d="M3254.3,490.7h7.3v3.3c1.2-1.4,2.6-2.4,4.1-3.1c1.5-0.7,3.2-1,5-1c1.8,0,3.4,0.5,4.9,1.3
		c1.4,0.9,2.6,2.2,3.5,3.9c1.2-1.7,2.6-3,4.2-3.9c1.7-0.9,3.5-1.3,5.5-1.3c2.1,0,3.9,0.5,5.4,1.4c1.6,1,2.7,2.2,3.4,3.8
		c0.7,1.5,1,4.1,1,7.5v17h-7.3v-14.7c0-3.3-0.4-5.5-1.2-6.7c-0.8-1.2-2-1.7-3.7-1.7c-1.2,0-2.4,0.4-3.3,1.1c-1,0.7-1.7,1.7-2.2,2.9
		c-0.5,1.3-0.7,3.3-0.7,6v13.1h-7.3v-14c0-2.6-0.2-4.5-0.6-5.6c-0.4-1.2-1-2-1.7-2.6c-0.8-0.6-1.7-0.8-2.8-0.8
		c-1.2,0-2.3,0.4-3.3,1.1c-1,0.7-1.7,1.7-2.2,3c-0.5,1.3-0.7,3.3-0.7,6.1v12.9h-7.3L3254.3,490.7L3254.3,490.7z"/>
</g>
<g>
	<path fill="#231F20" d="M2439.7,423.8V437h24.9v18.5h-24.9V479h-21.1v-74.9h55.5v19.6L2439.7,423.8L2439.7,423.8z"/>
	<path fill="#231F20" d="M2491.8,465.9l-4.1,13.1h-21.5l26.6-74.9h26.6l26.6,74.9H2524l-4.1-13.1H2491.8z M2511.1,438.4
		c-3.7-11.8-5.1-16.8-5.1-17.1h-0.5c-0.1,0.3-1.9,5.9-5.6,17.9l-2.7,8.7h17L2511.1,438.4z"/>
	<path fill="#231F20" d="M2598.6,479v-27.5h-25.8V479h-21.1v-74.9h21.1v27.7h25.8v-27.7h21.3V479H2598.6z"/>
	<path fill="#231F20" d="M2651.3,465.9l-4.1,13.1h-21.5l26.6-74.9h26.6l26.6,74.9h-21.9l-4.1-13.1H2651.3z M2670.7,438.4
		c-3.7-11.8-5.1-16.8-5.1-17.1h-0.5c-0.1,0.3-1.9,5.9-5.6,17.9l-2.7,8.7h17L2670.7,438.4z"/>
	<path fill="#231F20" d="M2742,404.2c23.8,0,41.8,14,41.8,37.7c0,23.9-18,37.2-42,37.2h-30.6v-74.9H2742z M2741.6,459.4
		c13.1,0,20.7-4.7,20.7-17.5c0-12.7-7.6-18.1-20.5-18.1h-9.5v35.6L2741.6,459.4L2741.6,459.4z"/>
	<path fill="#231F20" d="M2857.1,441.1l0.1-21.7h-0.3l-22.6,41.4h-7.1l-22.7-42h-0.3c0,0.1,0.3,14.4,0.3,21.7V479h-10.2v-74.9h12.7
		l15.8,28.3c5.5,9.9,8.3,15.8,8.4,15.8h0.3c0.3,0,3.1-5.9,8.6-15.9l15.5-28.2h11.9V479h-10.4V441.1L2857.1,441.1z"/>
	<path fill="#231F20" d="M2947,446.8c0,22.7-11.5,33.8-31.8,33.8c-20.3,0-31.7-11.1-31.7-33.8v-42.6h10.6v43.7
		c0,15.5,6.8,23.1,21.3,23.1c14.4,0,21.3-7.6,21.3-23.1v-43.7h10.4L2947,446.8L2947,446.8z"/>
	<path fill="#231F20" d="M2989.9,449.4c-2.9,0.1-6.7,0.1-8.3,0.1h-8.3V479h-10.4v-74.9h24.6c18.6,0,29.3,8.2,29.3,22.6
		c0,11.5-7,18.5-16.8,20.7l19.2,31.5h-11.4L2989.9,449.4z M2987.9,441.1c12,0,18.3-4.4,18.3-13.6c0-9.6-6.8-13.8-18.3-13.8h-14.6
		v27.4L2987.9,441.1L2987.9,441.1z"/>
	<path fill="#231F20" d="M3059.4,413.9V479H3049v-65.1h-26.1v-9.8h62.7v9.8H3059.4z"/>
	<path fill="#231F20" d="M3095.3,459l-7.8,20.1h-10.8l30.6-74.9h12.3l30.6,74.9h-11l-7.9-20.1H3095.3z M3121.2,433.2
		c-5.3-13.4-7.6-19.8-7.6-20.1h-0.4c0,0.3-2.7,7.4-8,21l-6.3,15.8h28.9L3121.2,433.2z"/>
	<path fill="#231F20" d="M3182.9,454.3c-11.1,12.6-13.9,14.7-13.9,14.8l0.3,0.3c0,0,4-0.1,10.2-0.1h39.3v9.8h-63.2v-9.9l37.4-41.4
		c9.6-10.7,12.4-13.4,12.4-13.5l-0.3-0.3h-9.5h-39v-9.8h62.2v9.9L3182.9,454.3z"/>
	<path fill="#231F20" d="M3242.5,459l-7.8,20.1h-10.8l30.6-74.9h12.3l30.6,74.9h-11l-7.9-20.1H3242.5z M3268.4,433.2
		c-5.3-13.4-7.6-19.8-7.6-20.1h-0.4c0,0.3-2.7,7.4-8,21l-6.3,15.8h28.9L3268.4,433.2z"/>
</g>
</svg>
